Coordinates
version=1
nRows=19
nColumns=33
inDegrees=yes

Units are S.I. units (second, meters, Newtons, ...)
Angles are in degrees.

endheader
time	ground_thorax_rot_x	ground_thorax_rot_y	ground_thorax_rot_z	ground_thorax_tx	ground_thorax_ty	ground_thorax_tz	clav_prot_r	clav_elev_r	scapula_abduction_r	scapula_elevation_r	scapula_upward_rot_r	scapula_winging_r	shoulder_elv_r	plane_of_elev_r	axial_rot_r	elbow_flexion_r	pro_sup_r	wrist_flex_r	wrist_dev_r	clav_prot_l	clav_elev_l	scapula_abduction_l	scapula_elevation_l	scapula_upward_rot_l	scapula_winging_l	shoulder_elv_l	plane_of_elev_l	axial_rot_l	elbow_flexion_l	pro_sup_l	wrist_flex_l	wrist_dev_l	
6.1500	29.820020	32.589056	39.790373	31.418235	770.035387	-41.781579	13.423953	35.890215	27.783724	45.000000	-44.936197	-1880.291259	-1550.078585	159.761066	19.195842	0.904760	176.105983	12.026443	13.385807	-12.192816	-45.000000	-37.145667	45.000000	-45.000000	-3143.174939	86.366290	15.490704	-180.000000	730.053865	212.738443	10.557937	-13.464288	
6.1600	29.823886	32.487397	39.733717	28.455650	770.301458	-41.589858	13.367707	35.841601	27.672378	45.000000	-44.984504	-1880.475405	-1549.996352	159.745393	19.349908	0.884790	175.931406	12.058753	13.389309	-12.154559	-45.000000	-37.088538	45.000000	-45.000000	-3142.946428	86.499120	15.544048	-180.000000	730.174506	212.436696	10.626305	-13.489469	
6.1700	29.831396	32.379573	39.666747	25.458534	770.627037	-41.386926	13.317550	35.794609	27.564997	45.000000	-45.000000	-1880.679846	-1549.932706	159.727144	19.472198	0.882075	175.618102	12.070690	13.393087	-12.110309	-45.000000	-37.047437	45.000000	-45.000000	-3142.719739	86.632639	15.604246	-180.000000	730.293618	212.132715	10.692645	-13.509921	
6.1800	29.846586	32.259403	39.579782	22.438441	771.020284	-41.189256	13.270450	35.753551	27.462719	45.000000	-45.000000	-1880.888790	-1549.880135	159.705264	19.564380	0.882524	175.170025	12.078738	13.401903	-12.056477	-45.000000	-37.020554	45.000000	-45.000000	-3142.499457	86.765478	15.666232	-180.000000	730.402753	211.832185	10.754885	-13.528866	
6.1900	29.857772	32.134860	39.493924	19.404100	771.485843	-41.007275	13.235278	35.712898	27.365936	45.000000	-45.000000	-1881.104227	-1549.840699	159.673366	19.605865	0.893756	174.595891	12.084941	13.429602	-11.995431	-45.000000	-37.006665	45.000000	-45.000000	-3142.269276	86.896350	15.736183	-180.000000	730.510085	211.540288	10.808798	-13.543530	
6.2000	29.875351	31.996936	39.387282	16.362167	772.025708	-40.845379	13.205039	35.677651	27.273774	45.000000	-45.000000	-1881.312432	-1549.806633	159.634669	19.608314	0.901479	173.914110	12.096195	13.469950	-11.924816	-45.000000	-37.007031	45.000000	-45.000000	-3142.044510	87.025784	15.807502	-180.000000	730.602740	211.262444	10.856017	-13.560436	
6.2100	29.898812	31.846766	39.261091	13.316141	772.638785	-40.702228	13.180692	35.646648	27.183260	45.000000	-45.000000	-1881.508260	-1549.773660	159.593092	19.568940	0.902450	173.144390	12.109557	13.520011	-11.845920	-45.000000	-37.020747	45.000000	-45.000000	-3141.827411	87.155113	15.878057	-180.000000	730.680476	211.003692	10.897119	-13.581236	
6.2200	29.936281	31.676855	39.098293	10.269367	773.323867	-40.576402	13.151808	35.625449	27.094547	45.000000	-45.000000	-1881.685656	-1549.736623	159.549085	19.498833	0.884595	172.311650	12.127319	13.571621	-11.758822	-45.000000	-37.048324	45.000000	-45.000000	-3141.632207	87.285763	15.942040	-180.000000	730.734022	210.767742	10.935030	-13.611387	
6.2300	29.976978	31.498227	38.920890	7.223615	774.078987	-40.466095	13.125986	35.604660	27.009489	45.000000	-45.000000	-1881.854972	-1549.701543	159.504284	19.389436	0.859030	171.437134	12.141858	13.628767	-11.665276	-45.000000	-37.088539	45.000000	-45.000000	-3141.446922	87.417077	16.003692	-180.000000	730.775012	210.555741	10.970092	-13.647239	
6.2400	30.019667	31.312200	38.732654	4.180420	774.902493	-40.369924	13.098770	35.585271	26.933387	45.000000	-45.000000	-1882.023309	-1549.670286	159.457593	19.247934	0.826472	170.542060	12.151347	13.690339	-11.565623	-45.000000	-37.140871	45.000000	-45.000000	-3141.269220	87.546654	16.063257	-180.000000	730.805031	210.364223	11.003240	-13.688099	
6.2500	30.064256	31.118173	38.536144	1.139809	775.793117	-40.287249	13.069616	35.569798	26.865958	45.000000	-45.000000	-1882.190382	-1549.641921	159.408381	19.080301	0.786735	169.649370	12.154913	13.754291	-11.460992	-45.000000	-37.204132	45.000000	-45.000000	-3141.097011	87.672813	16.118700	-180.000000	730.827343	210.186288	11.035649	-13.731846	
6.2600	30.105340	30.921363	38.341322	-1.899101	776.749815	-40.218548	13.043008	35.551665	26.804795	45.000000	-45.000000	-1882.357040	-1549.614581	159.357709	18.892181	0.742881	168.780433	12.151235	13.819357	-11.351298	-45.000000	-37.275127	45.000000	-45.000000	-3140.924723	87.798672	16.172901	-180.000000	730.847014	210.012732	11.068034	-13.774133	
6.2700	30.139054	30.727872	38.157982	-4.939031	777.771587	-40.165718	13.025611	35.525259	26.748252	45.000000	-45.000000	-1882.522796	-1549.585759	159.310100	18.693376	0.699181	167.952112	12.138743	13.885403	-11.236369	-45.000000	-37.352405	45.000000	-45.000000	-3140.745288	87.923179	16.227665	-180.000000	730.870186	209.833319	11.101367	-13.810249	
6.2800	30.163554	30.542553	37.991298	-7.983274	778.856877	-40.131546	13.017709	35.487571	26.694527	45.000000	-45.000000	-1882.689646	-1549.552211	159.267112	18.491369	0.656863	167.179425	12.118850	13.950353	-11.116230	-45.000000	-37.430459	45.000000	-45.000000	-3140.556141	88.048954	16.284889	-180.000000	730.898344	209.639152	11.136884	-13.837373	
6.2900	30.190394	30.356326	37.822247	-11.035761	780.003252	-40.119203	13.002982	35.456745	26.645471	45.000000	-45.000000	-1882.863663	-1549.516795	159.217851	18.290513	0.611005	166.481064	12.098787	14.011695	-10.995388	-45.000000	-37.506259	45.000000	-45.000000	-3140.366703	88.174513	16.340262	-180.000000	730.923367	209.424875	11.177497	-13.859034	
6.3000	30.216646	30.173007	37.655751	-14.098853	781.206856	-40.131040	12.985014	35.426716	26.593961	45.000000	-45.000000	-1883.041588	-1549.475209	159.163531	18.090187	0.563277	165.871041	12.081158	14.067124	-10.872494	-45.000000	-37.573401	45.000000	-45.000000	-3140.175517	88.304765	16.397128	-180.000000	730.946437	209.189071	11.223134	-13.873529	
6.3100	30.249085	29.985444	37.480641	-17.172927	782.462436	-40.167861	12.954409	35.406291	26.545052	45.000000	-45.000000	-1883.227872	-1549.430547	159.098445	17.895354	0.514348	165.355095	12.069594	14.118391	-10.749651	-45.000000	-37.634206	45.000000	-45.000000	-3139.985951	88.434168	16.453148	-180.000000	730.961543	208.932998	11.274404	-13.884587	
6.3200	30.277326	29.802893	37.312988	-20.254945	783.763476	-40.228023	12.925633	35.379736	26.491730	45.000000	-45.000000	-1883.411079	-1549.376007	159.038222	17.708114	0.467884	164.926027	12.062579	14.164508	-10.622914	-45.000000	-37.687304	45.000000	-45.000000	-3139.793663	88.566232	16.511110	-180.000000	730.976985	208.659487	11.328927	-13.888402	
6.3300	30.307068	29.617365	37.138228	-23.339631	785.103012	-40.307982	12.889899	35.358202	26.437507	45.000000	-45.000000	-1883.597171	-1549.319441	158.974132	17.534853	0.423906	164.568297	12.060937	14.209242	-10.496378	-45.000000	-37.739157	45.000000	-45.000000	-3139.605074	88.696719	16.569394	-180.000000	730.987656	208.371797	11.386537	-13.889486	
